<svg xmlns="http://www.w3.org/2000/svg" viewBox="0 0 128 128">
  <!-- Terminal background (no stroke, border drawn separately) -->
  <rect x="4" y="4" width="120" height="120" rx="8" fill="#0a0a14"/>

  <!-- Terminal header bar -->
  <rect x="4" y="4" width="120" height="20" rx="8" fill="#151525"/>
  <rect x="4" y="16" width="120" height="8" fill="#151525"/>

  <!-- Border (drawn on top to be consistent) -->
  <rect x="4" y="4" width="120" height="120" rx="8" fill="none" stroke="#33cc66" stroke-width="3"/>

  <!-- Window buttons -->
  <circle cx="20" cy="14" r="5" fill="#ff5f56"/>
  <circle cx="38" cy="14" r="5" fill="#ffbd2e"/>
  <circle cx="56" cy="14" r="5" fill="#27c93f"/>

  <!-- Terminal prompt -->
  <text x="16" y="52" fill="#33cc66" font-family="monospace" font-size="14" font-weight="bold">$</text>

  <!-- Terminal text lines -->
  <rect x="28" y="40" width="60" height="10" rx="2" fill="#4d9fff"/>
  <rect x="16" y="60" width="80" height="10" rx="2" fill="#cccccc" opacity="0.8"/>
  <rect x="16" y="80" width="50" height="10" rx="2" fill="#33cc66" opacity="0.8"/>

  <!-- Cursor -->
  <rect x="16" y="100" width="10" height="14" fill="#33cc66" opacity="0.8">
    <animate attributeName="opacity" values="0.8;0.2;0.8" dur="1s" repeatCount="indefinite"/>
  </rect>

  <!-- Godot gear logo in corner (scaled down) -->
  <!-- Source: Godot Engine logo, CC-BY 4.0 -->
  <g transform="translate(98, 92) scale(0.06)">
    <path fill="#fff" d="M105 673v33q407 354 814 0v-33z"/>
    <path fill="none" stroke="#478cbf" stroke-linejoin="round" stroke-width="64" d="M105 745c0 276 813 276 814 0V427q30-39 56-81-35-59-83-108-43 20-82 47-40-37-88-64 7-51 8-102-59-28-123-42-26 43-46 89-49-7-98 0-20-46-46-89-64 14-123 42 1 51 8 102-48 27-88 64-39-27-82-47-48 49-83 108 26 42 56 81v318z"/>
    <path fill="#478cbf" d="m105 673 152 14q12 1 15 14l4 67 132 10 8-61q2-11 15-15h162q13 4 15 15l8 61 132-10 4-67q3-13 15-14l152-14V427q30-39 56-81-35-59-83-108-43 20-82 47-40-37-88-64 7-51 8-102-59-28-123-42-26 43-46 89-49-7-98 0-20-46-46-89-64 14-123 42 1 51 8 102-48 27-88 64-39-27-82-47-48 49-83 108 26 42 56 81zm0 33v39c0 276 813 276 814 0v-39l-134 12-5 69q-2 10-14 13l-162 11q-12 0-16-11l-10-65H446l-10 65q-4 11-16 11l-162-11q-12-3-14-13l-5-69z"/>
    <path fill="#414042" d="M483 600c0 34 58 34 58 0v-86c0-34-58-34-58 0z"/>
    <circle fill="#414042" cx="725" cy="526" r="90"/>
    <circle fill="#414042" cx="299" cy="526" r="90"/>
    <circle fill="#fff" cx="307" cy="532" r="60"/>
    <circle fill="#fff" cx="717" cy="532" r="60"/>
  </g>
</svg>
